<svg version="1.1" id="レイヤー_1" xmlns="http://www.w3.org/2000/svg" xmlns:xlink="http://www.w3.org/1999/xlink" x="0px"
	y="0px" width="1698.146px" height="1703.34px" viewBox="0 0 1698.146 1703.34" enable-background="new 0 0 1698.146 1703.34"
	xml:space="preserve">
<g>
	<defs>
		<path id="SVGID_1_" d="M1207.656,199.444c-113.617,33.439-235.301,41.565-355.005,53.237
			c-119.708,11.673-241.586,27.882-347.745,75.327c-159.913,71.464-268.392,210.736-300.891,359.238
			c47.94-119.235,151.935-222.209,284.892-282.089c150.064-67.581,325.998-79.171,495.82-93.197
			c169.823-14.026,346.642-34.099,487.139-114.646c126.746,155.146,143.114,368.009,41.174,535.313
			c-68.028,111.638-186.872,199.906-325.15,248.304c-153.73,53.799-329.496,53.688-491.115,83.297
			c-182.336,33.398-351.784,90.963-483.45,204.677c112.067-212.193,339.811-370.422,590.55-471.646
			c96.686-39.03,198.205-71.015,287.484-120.775c89.284-49.757,167.372-121.294,188.835-208.861
			c-38.033,69.398-116.783,118.049-200.26,149.655c-83.479,31.607-173.567,49.006-259.936,74.691
			c-240.535,71.533-451.248,209.314-594.513,385.17C82.224,1252.994,6.629,1465.846,8.455,1678.242
			c41.641-159.841,189.083-289.493,360.038-370.391c170.946-80.899,365.208-119.918,556.846-156.797
			c188.609-36.302,359.604-79.2,504.562-190.357c187.826-144.037,284.59-359.817,255.365-570.945
			c-19.429-140.356-93.824-275.08-209.186-378.811C1428.354,102.959,1321.272,166.006,1207.656,199.444"/>
	</defs>
	<clipPath id="SVGID_2_">
		<use xlink:href="#SVGID_1_"  overflow="visible"/>
	</clipPath>
	
		<linearGradient id="SVGID_3_" gradientUnits="userSpaceOnUse" x1="-340.2598" y1="1660.1699" x2="-338.1777" y2="1660.1699" gradientTransform="matrix(-1083.7048 1430.8715 1430.8715 1083.7048 -2742793.25 -1312181.75)">
		<stop  offset="0" style="stop-color:#80B927"/>
		<stop  offset="0.5502" style="stop-color:#008540"/>
		<stop  offset="1" style="stop-color:#006C33"/>
	</linearGradient>
	<polygon clip-path="url(#SVGID_2_)" fill="url(#SVGID_3_)" points="2679.639,618.707 1091.939,2361.674 -958.523,1070.478 
		629.177,-672.489 	"/>
</g>
</svg>
